<?xml version="1.0" encoding="UTF-8"?>
<svg width="453.43" height="121.84" version="1.1" viewBox="0 0 119.97 32.238" xmlns="http://www.w3.org/2000/svg" xmlns:xlink="http://www.w3.org/1999/xlink">
    <defs>
        <linearGradient id="type" x1="172.12" x2="301.03" y1="76.049" y2="92.837" gradientUnits="userSpaceOnUse">
            <stop stop-color="#ea7aa1" offset="0"/>
            <stop stop-color="#ffbb36" offset="1"/>
        </linearGradient>
        <filter id="filter4696" x="-.031403" y="-.05488" width="1.0628" height="1.1326" color-interpolation-filters="sRGB">
            <feFlood flood-color="rgb(0,0,0)" flood-opacity=".2" result="flood"/>
            <feComposite in="SourceGraphic" in2="flood" operator="in" result="composite1"/>
            <feGaussianBlur in="composite1" result="blur" stdDeviation="2"/>
            <feOffset dx="0" dy="2" result="offset"/>
            <feComposite in="SourceGraphic" in2="offset" result="composite2"/>
        </filter>
        <filter id="filter4750" x="-.020531" y="-.022823" width="1.0411" height="1.0552" color-interpolation-filters="sRGB">
            <feFlood flood-color="rgb(0,0,0)" flood-opacity=".2" result="flood"/>
            <feComposite in="SourceGraphic" in2="flood" operator="in" result="composite1"/>
            <feGaussianBlur in="composite1" result="blur" stdDeviation="2"/>
            <feOffset dx="0" dy="2" result="offset"/>
            <feComposite in="SourceGraphic" in2="offset" result="composite2"/>
        </filter>
        <filter id="filter4780" x="-.072802" y="-.33278" width="1.1456" height="1.8042" color-interpolation-filters="sRGB">
            <feFlood flood-color="rgb(0,0,0)" flood-opacity=".2" result="flood"/>
            <feComposite in="SourceGraphic" in2="flood" operator="in" result="composite1"/>
            <feGaussianBlur in="composite1" result="blur" stdDeviation="2"/>
            <feOffset dx="0" dy="2" result="offset"/>
            <feComposite in="SourceGraphic" in2="offset" result="composite2"/>
        </filter>
        <linearGradient id="linearGradient4800" x1="172.12" x2="301.03" y1="76.049" y2="92.837" gradientUnits="userSpaceOnUse" xlink:href="#type"/>
        <linearGradient id="linearGradient983" x1="172.12" x2="301.03" y1="76.049" y2="92.837" gradientTransform="translate(0 1.0037)" gradientUnits="userSpaceOnUse" xlink:href="#type"/>
    </defs>
    <g transform="translate(-134.39 -72.281)">
        <g transform="translate(.37568 7.199)">
            <g transform="matrix(1.1899 0 0 1.1899 -27.167 -17.994)" filter="url(#filter4780)" stroke-width=".45584" aria-label="Mamar">
                <path d="m170.91 76.154c-0.60801-0.01143-1.0732 0.31851-1.3633 0.74414-0.29144 0.4277-0.43891 0.95054-0.50781 1.4121-0.72386 3.4156-1.3524 6.867-1.6738 10.355-0.25608 1.0374 0.65511 2.1249 1.7441 1.875 0.58784-0.07739 0.9855-0.457 1.207-0.89844 0.22095-0.44027 0.30308-0.94319 0.35547-1.3711 0.33377-1.7024 0.52614-3.414 0.76953-5.1094 0.53088 1.4239 1.0917 2.8469 1.7969 4.2012a0.25357 0.25357 0 0 0 0.0273 0.04297c0.81981 1.0137 2.5369 0.54954 2.8594-0.67774l-0.0176 0.04492c0.53741-1.1256 1.003-2.2802 1.4453-3.4414 0.26522 2.0582 0.50225 4.1475 1.0234 6.1836a0.25357 0.25357 0 0 0 4e-3 0.01563c0.22379 0.69785 0.92848 1.04 1.584 1.0273 0.32775-0.0063 0.65562-0.09847 0.92187-0.29492 0.26626-0.19645 0.46484-0.50499 0.51563-0.88867a0.25357 0.25357 0 0 0 2e-3 -0.04102c-0.0716-2.5499-0.59412-5.0516-1.0098-7.5273a0.25357 0.25357 0 0 0-2e-3 -0.01563c-0.34642-1.5285-0.47896-3.158-1.0293-4.7012a0.25357 0.25357 0 0 0-0.01-0.02148c-0.5919-1.2592-2.5127-1.143-3.0684 0.08594-0.85375 1.5672-1.3253 3.2659-1.9688 4.8613-0.70298-1.6712-1.1986-3.4745-2.1758-5.0938a0.25357 0.25357 0 0 0-0.01-0.01563c-0.31529-0.44802-0.83401-0.77391-1.4199-0.75195z" fill="url(#linearGradient983)"/>
                <g transform="translate(0 1.0037)" fill="url(#linearGradient4800)" stroke-width=".52734">
                    <path d="m187.07 77.373c-2.3008 0.15024-4.1363 2.1239-4.5253 4.3322-0.49195 2.2829-0.26143 5.0552 1.6516 6.6484 1.541 1.2304 3.7845 1.4275 5.5964 0.73221 0.39107-0.05404 0.91174-0.80212 1.1016-0.4043 0.52426 1.0416 2.4272 0.90092 2.543-0.36328 0.35127-2.1882 0.25501-4.4265 0.23314-6.6368-0.12728-1.1906 0.12654-2.4951-0.42845-3.5937-0.60032-0.91589-2.1285-0.65442-2.5078 0.27734-1.0045-0.84535-2.3822-1.116-3.6641-0.99219zm0.94922 3.0859c1.3658 0.0057 2.475 1.2056 2.4941 2.5508 0.14436 1.3707-0.30973 3.1975-1.875 3.4941-1.2332 0.29865-2.7565-0.31481-2.9864-1.6714-0.2734-1.3749-0.33089-3.2077 0.96102-4.0986 0.41607-0.2584 0.92816-0.29689 1.4063-0.27497z"/>
                    <path d="m199.14 77.332c-2.0098-0.08836-3.7416 1.5595-3.9116 3.5309-0.23988 2.2-0.1685 4.4269-0.0928 6.6348 4e-3 0.80741 0.44843 1.7607 1.3716 1.762 0.90541 0.15768 1.6199-0.61564 1.668-1.4766 0.28391-2.1267-0.2387-4.3127 0.2832-6.4102 0.24004-1.2386 2.042-1.2476 2.6113-0.26758 0.92886 1.5521 0.84176 3.4512 0.96161 5.1968 0.0587 1.0126-0.0561 2.4328 1.054 2.9204 0.91112 0.3452 1.9883-0.23823 2.0998-1.2304 0.31209-2.2026-0.099-4.5865 0.96854-6.6348 0.44121-1.0397 2.2632-1.4035 2.6973-0.18164 0.58148 1.8187 0.17325 3.7653 0.28713 5.6604-0.0297 0.93625 0.20211 2.361 1.3789 2.4216 0.92994 0.18007 1.7633-0.6269 1.7324-1.5488 0.0725-2.2889 0.14124-4.5968-0.0872-6.879-0.16857-1.606-1.3175-3.2363-3.0319-3.3632-2.0381-0.3541-4.4621 0.34419-5.4258 2.3145-0.76869-1.7672-2.7211-2.5892-4.5644-2.4492z"/>
                    <path d="m217.77 77.373c-2.3006 0.15036-4.1364 2.1238-4.5253 4.3322-0.4935 2.2833-0.26203 5.0553 1.6516 6.6484 1.5411 1.2305 3.7845 1.4275 5.5964 0.73221 0.39153-0.05314 0.91219-0.80518 1.1016-0.40234 0.52528 1.0395 2.4236 0.89796 2.541-0.36328 0.35005-2.1559 0.25605-4.3623 0.23743-6.5407-0.11623-1.1977 0.0991-2.4801-0.37806-3.6097-0.55107-0.99865-2.1708-0.77412-2.5605 0.19531-1.0062-0.84331-2.381-1.1171-3.6641-0.99219zm0.94922 3.0859c1.4049 0.0031 2.5218 1.2733 2.4982 2.6507 0.13658 1.3743-0.39501 3.1976-1.9781 3.4079-1.2543 0.28539-2.734-0.42885-2.9148-1.7901-0.23904-1.3505-0.27791-3.1239 0.98447-3.9917 0.41551-0.26237 0.93136-0.29752 1.4103-0.27679z"/>
                    <path d="m227.28 77.24c-1.0611 0.0016-1.359 1.1777-1.3997 2.0366-0.21727 2.331-0.0786 4.682-0.0638 7.02 0.11291 0.92348-0.0509 2.0531 0.61987 2.7835 0.77301 0.58371 2.2031 0.38393 2.4355-0.68579 0.30029-1.4184 0.19141-2.8986 0.27206-4.3433 0.071-0.75169-0.0995-1.5281 0.0111-2.2602 0.95003-1.2991 3.1242-0.5532 3.9047-2.0471 0.54434-0.9629-0.11012-2.3405-1.2699-2.3416-1.0452-0.13275-2.1168 0.34405-2.8457 1.0078-0.12865-0.79239-0.8985-1.2465-1.6641-1.1699z"/>
                </g>
            </g>
            <g transform="matrix(.13354 0 0 .13354 119.29 56.928)">
                <path class="cls-1" d="m249.28 85.353c-3.1772 0.01234-6.3016 0.95605-9.0811 2.4651-3.4538 1.8672-6.4294 4.4985-9.1042 7.3476-3.5048 3.7658-6.5324 7.9459-9.3538 12.239-3.9587 6.0514-7.5051 12.361-10.913 18.735-2.2754 4.2648-4.4757 8.5691-6.6416 12.89-9.9551 1.5484-19.836 3.5752-29.595 6.082-7.2885 1.8837-14.519 4.0229-21.58 6.6385-4.2002 1.5707-8.356 3.2956-12.299 5.4406-2.357 1.3031-4.6685 2.7505-6.6132 4.6305-1.369 1.3378-2.5426 2.9696-2.9717 4.8631-0.47475 2.0218-0.11369 4.1455 0.60143 6.0656 0.92825 2.4769 2.3575 4.7287 3.8902 6.8709 2.4738 3.4216 5.277 6.5892 8.145 9.6823 4.8327 5.1809 9.9059 10.13 14.995 15.057 6.0706 5.8608 12.191 11.669 18.234 17.56-1.6833 10.025-3.3247 20.059-4.646 30.139-0.81023 6.2675-1.5116 12.555-1.8322 18.869-0.18404 3.892-0.24393 7.8031 0.14431 11.685 0.27409 2.5681 0.73207 5.1592 1.815 7.5223 0.80425 1.7461 2.0398 3.3512 3.7298 4.3142 1.7876 1.021 3.8989 1.2815 5.9269 1.2088 2.8573-0.1148 5.6576-0.78467 8.3962-1.5687 4.6136-1.3585 9.0922-3.1326 13.514-5.0135 7.2945-3.1235 14.436-6.5907 21.531-10.14 7.6244-3.8216 15.186-7.7667 22.743-11.719 10.195 5.3335 20.353 10.742 30.665 15.848 5.8652 2.8909 11.776 5.7019 17.84 8.156 3.5618 1.4243 7.1769 2.7512 10.912 3.6481 2.389 0.55507 4.8559 0.9592 7.3135 0.72082 1.8109-0.17521 3.6222-0.7981 5.0027-2.013 1.6328-1.4044 2.6594-3.3754 3.3342-5.3913 0.90232-2.728 1.2782-5.5972 1.4989-8.452 0.33482-4.5842 0.22482-9.188-0.0162-13.774-0.4303-7.709-1.2948-15.387-2.3065-23.039-0.93784-7.0177-2.02-14.016-3.1853-20.999 6.9518-6.7896 13.988-13.492 20.899-20.324 4.7293-4.6874 9.4196-9.4225 13.826-14.418 2.5852-2.9562 5.0959-5.997 7.218-9.3082 1.3449-2.1367 2.5605-4.4091 3.1217-6.8894 0.42078-1.8567 0.38039-3.8628-0.3886-5.626-0.83905-1.9521-2.355-3.5185-3.9832-4.8415-2.426-1.9428-5.1612-3.4554-7.9392-4.8296-4.6893-2.2888-9.5769-4.1442-14.513-5.8248-7.8548-2.6537-15.867-4.8236-23.943-6.6905-7.0606-1.623-14.178-3.0011-21.337-4.1155-3.516-8.1616-7.2419-16.242-11.475-24.06-2.911-5.3463-6.0522-10.586-9.7276-15.447-2.5774-3.3818-5.4255-6.5992-8.7851-9.2261-2.8134-2.1965-6.0506-3.9503-9.5785-4.639-1.148-0.2247-2.318-0.3384-3.488-0.32947z" fill="#ffbb36" filter="url(#filter4750)" stroke-width=".26458"/>
                <path d="m307.01 65.865c-6.4354 0.19812-12.61 2.4127-18.42 5.0404-7.6798 3.5672-14.94 8.0393-21.628 13.231-1.7934 1.3855-3.5077 2.896-4.9056 4.6899-3.3798-2.0859-7.2265-3.4002-11.177-3.8143-4.0175-0.40899-8.1215 0.12142-11.906 1.5304-1.7548 0.67016-3.4491 1.5095-5.0296 2.5261-2.4464-2.9231-5.6297-5.0922-8.6853-7.3225-7.1866-4.9987-14.851-9.412-23.077-12.461-5.376-1.9219-11.173-3.3565-16.903-2.4412-4.173 0.64642-8.0944 3.0403-10.319 6.6678-3.1346 4.8872-3.729 10.993-2.8054 16.624 1.2398 7.5877 4.5988 14.652 8.5458 21.183 1.0086 1.6455 2.0724 3.2573 3.1895 4.831-1.315 6.7874-1.8865 13.845-0.58689 20.68 0.96448 5.0145 3.3292 10.008 7.5613 13.055 4.0926 3.0251 9.41 3.7931 14.371 3.3019 7.3713-0.64338 14.284-4.1463 19.685-9.121 3.4787-3.1509 6.4348-6.8432 8.9834-10.776 2.7588 1.7496 5.8191 3.0204 9.0221 3.6789 3.2809 0.66267 6.6814 0.69633 9.9761 0.10051 3.3372-0.61991 6.5522-1.8766 9.4175-3.7002 0.51716-0.61064 0.7165 0.13733 1.0178 0.53602 4.6739 6.8716 10.849 13.033 18.612 16.279 5.2787 2.1938 11.213 3.0707 16.854 1.9553 4.3872-0.89343 8.4009-3.5258 10.844-7.2942 3.2667-4.9583 4.1585-11.057 4.1483-16.887-9e-3 -4.1974-0.49043-8.387-1.3125-12.501 4.5797-6.526 8.4752-13.639 10.7-21.326 1.6879-5.9358 2.1888-12.506-0.21804-18.322-1.4164-3.5493-4.0208-6.7072-7.5402-8.313-2.6114-1.2518-5.5398-1.681-8.4149-1.6323z" fill="#ea7aa1" filter="url(#filter4696)"/>
            </g>
        </g>
    </g>
</svg>
