<?xml version="1.0" encoding="UTF-8"?>
<svg width="122.84" height="121.84" version="1.1" viewBox="0 0 32.502 32.238" xmlns="http://www.w3.org/2000/svg">
    <defs>
        <filter id="filter4696" x="-.031402" y="-.05488" width="1.0628" height="1.1326" color-interpolation-filters="sRGB">
            <feFlood flood-color="rgb(0,0,0)" flood-opacity=".2" result="flood"/>
            <feComposite in="SourceGraphic" in2="flood" operator="in" result="composite1"/>
            <feGaussianBlur in="composite1" result="blur" stdDeviation="2"/>
            <feOffset dx="0" dy="2" result="offset"/>
            <feComposite in="SourceGraphic" in2="offset" result="composite2"/>
        </filter>
        <filter id="filter4750" x="-.020531" y="-.022823" width="1.0411" height="1.0552" color-interpolation-filters="sRGB">
            <feFlood flood-color="rgb(0,0,0)" flood-opacity=".2" result="flood"/>
            <feComposite in="SourceGraphic" in2="flood" operator="in" result="composite1"/>
            <feGaussianBlur in="composite1" result="blur" stdDeviation="2"/>
            <feOffset dx="0" dy="2" result="offset"/>
            <feComposite in="SourceGraphic" in2="offset" result="composite2"/>
        </filter>
    </defs>
    <g transform="translate(-132.28 -72.281)">
        <g transform="translate(.37568 7.199)">
            <g transform="matrix(.13354 0 0 .13354 115.06 56.928)">
                <path class="cls-1" d="m249.28 85.353c-3.1772 0.01234-6.3016 0.95605-9.0811 2.4651-3.4538 1.8672-6.4294 4.4985-9.1042 7.3476-3.5048 3.7658-6.5324 7.9459-9.3538 12.239-3.9587 6.0514-7.5051 12.361-10.913 18.735-2.2754 4.2648-4.4757 8.5691-6.6416 12.89-9.9551 1.5484-19.836 3.5752-29.595 6.082-7.2885 1.8837-14.519 4.0229-21.58 6.6385-4.2002 1.5707-8.356 3.2956-12.299 5.4406-2.357 1.3031-4.6685 2.7505-6.6132 4.6305-1.369 1.3378-2.5426 2.9696-2.9717 4.8631-0.47475 2.0218-0.11369 4.1455 0.60143 6.0656 0.92825 2.4769 2.3575 4.7287 3.8902 6.8709 2.4738 3.4216 5.277 6.5892 8.145 9.6823 4.8327 5.1809 9.9059 10.13 14.995 15.057 6.0706 5.8608 12.191 11.669 18.234 17.56-1.6833 10.025-3.3247 20.059-4.646 30.139-0.81023 6.2675-1.5116 12.555-1.8322 18.869-0.18404 3.892-0.24393 7.8031 0.14431 11.685 0.27409 2.5681 0.73207 5.1592 1.815 7.5223 0.80425 1.7461 2.0398 3.3512 3.7298 4.3142 1.7876 1.021 3.8989 1.2815 5.9269 1.2088 2.8573-0.1148 5.6576-0.78467 8.3962-1.5687 4.6136-1.3585 9.0922-3.1326 13.514-5.0135 7.2945-3.1235 14.436-6.5907 21.531-10.14 7.6244-3.8216 15.186-7.7667 22.743-11.719 10.195 5.3335 20.353 10.742 30.665 15.848 5.8652 2.8909 11.776 5.7019 17.84 8.156 3.5618 1.4243 7.1769 2.7512 10.912 3.6481 2.389 0.55507 4.8559 0.9592 7.3135 0.72082 1.8109-0.17521 3.6222-0.7981 5.0027-2.013 1.6328-1.4044 2.6594-3.3754 3.3342-5.3913 0.90232-2.728 1.2782-5.5972 1.4989-8.452 0.33482-4.5842 0.22482-9.188-0.0162-13.774-0.4303-7.709-1.2948-15.387-2.3065-23.039-0.93784-7.0177-2.02-14.016-3.1853-20.999 6.9518-6.7896 13.988-13.492 20.899-20.324 4.7293-4.6874 9.4196-9.4225 13.826-14.418 2.5852-2.9562 5.0959-5.997 7.218-9.3082 1.3449-2.1367 2.5605-4.4091 3.1217-6.8894 0.42078-1.8567 0.38039-3.8628-0.3886-5.626-0.83905-1.9521-2.355-3.5185-3.9832-4.8415-2.426-1.9428-5.1612-3.4554-7.9392-4.8296-4.6893-2.2888-9.5769-4.1442-14.513-5.8248-7.8548-2.6537-15.867-4.8236-23.943-6.6905-7.0606-1.623-14.178-3.0011-21.337-4.1155-3.516-8.1616-7.2419-16.242-11.475-24.06-2.911-5.3463-6.0522-10.586-9.7276-15.447-2.5774-3.3818-5.4255-6.5992-8.7851-9.2261-2.8134-2.1965-6.0506-3.9503-9.5785-4.639-1.148-0.2247-2.318-0.3384-3.488-0.32947z" fill="#ffbb36" filter="url(#filter4750)" stroke-width=".26458"/>
                <path d="m307.01 65.865c-6.4354 0.19812-12.61 2.4127-18.42 5.0404-7.6798 3.5672-14.94 8.0393-21.628 13.231-1.7934 1.3855-3.5077 2.896-4.9056 4.6899-3.3798-2.0859-7.2265-3.4002-11.177-3.8143-4.0175-0.40899-8.1215 0.12142-11.906 1.5304-1.7548 0.67016-3.4491 1.5095-5.0296 2.5261-2.4464-2.9231-5.6297-5.0922-8.6853-7.3225-7.1866-4.9987-14.851-9.412-23.077-12.461-5.376-1.9219-11.173-3.3565-16.903-2.4412-4.173 0.64642-8.0944 3.0403-10.319 6.6678-3.1346 4.8872-3.729 10.993-2.8054 16.624 1.2398 7.5877 4.5988 14.652 8.5458 21.183 1.0086 1.6455 2.0724 3.2573 3.1895 4.831-1.315 6.7874-1.8865 13.845-0.58689 20.68 0.96448 5.0145 3.3292 10.008 7.5613 13.055 4.0926 3.0251 9.41 3.7931 14.371 3.3019 7.3713-0.64338 14.284-4.1463 19.685-9.121 3.4787-3.1509 6.4348-6.8432 8.9834-10.776 2.7588 1.7496 5.8191 3.0204 9.0221 3.6789 3.2809 0.66267 6.6814 0.69633 9.9761 0.10051 3.3372-0.61991 6.5522-1.8766 9.4175-3.7002 0.51716-0.61064 0.7165 0.13733 1.0178 0.53602 4.6739 6.8716 10.849 13.033 18.612 16.279 5.2787 2.1938 11.213 3.0707 16.854 1.9553 4.3872-0.89343 8.4009-3.5258 10.844-7.2942 3.2667-4.9583 4.1585-11.057 4.1483-16.887-9e-3 -4.1974-0.49043-8.387-1.3125-12.501 4.5797-6.526 8.4752-13.639 10.7-21.326 1.6879-5.9358 2.1888-12.506-0.21804-18.322-1.4164-3.5493-4.0208-6.7072-7.5402-8.313-2.6114-1.2518-5.5398-1.681-8.4149-1.6323z" fill="#ea7aa1" filter="url(#filter4696)"/>
            </g>
        </g>
    </g>
</svg>
