<?xml version="1.0" encoding="UTF-8" standalone="no"?>
<!-- Created with Inkscape (http://www.inkscape.org/) -->

<svg
   width="874"
   height="874"
   viewBox="0 0 231.24582 231.24583"
   version="1.1"
   id="svg7401"
   inkscape:version="1.1 (c4e8f9e, 2021-05-24)"
   sodipodi:docname="mamar-flat.svg"
   xmlns:inkscape="http://www.inkscape.org/namespaces/inkscape"
   xmlns:sodipodi="http://sodipodi.sourceforge.net/DTD/sodipodi-0.dtd"
   xmlns="http://www.w3.org/2000/svg"
   xmlns:svg="http://www.w3.org/2000/svg"
   xmlns:rdf="http://www.w3.org/1999/02/22-rdf-syntax-ns#"
   xmlns:cc="http://creativecommons.org/ns#"
   xmlns:dc="http://purl.org/dc/elements/1.1/">
  <defs
     id="defs7395">
    <style
       id="style4526">.cls-1{stroke:#326600;fill:url(#名称未設定グラデーション_18);}.cls-1,.cls-2,.cls-3,.cls-4,.cls-5{stroke-linecap:round;stroke-linejoin:round;}.cls-1,.cls-3,.cls-4,.cls-5{stroke-width:20px;}.cls-2{fill:none;stroke:#000;stroke-width:40px;}.cls-3{fill:#f2f2f2;stroke:#ccc;}.cls-4{stroke:#666;fill:url(#名称未設定グラデーション_51);}.cls-5{stroke:#c1272d;fill:url(#名称未設定グラデーション_61);}</style>
    <linearGradient
       gradientUnits="userSpaceOnUse"
       y2="878.29999"
       x2="512"
       y1="64"
       x1="512"
       id="名称未設定グラデーション_18">
      <stop
         id="stop4528"
         stop-color="#ff0"
         offset="0" />
      <stop
         id="stop4530"
         stop-color="#e8e800"
         offset="1" />
    </linearGradient>
    <linearGradient
       gradientUnits="userSpaceOnUse"
       y2="892.44"
       x2="512"
       y1="549.88"
       x1="512"
       id="名称未設定グラデーション_51">
      <stop
         id="stop4533"
         stop-color="#d9d9d9"
         offset="0" />
      <stop
         id="stop4535"
         stop-color="#bfbfbf"
         offset="1" />
    </linearGradient>
    <linearGradient
       gradientUnits="userSpaceOnUse"
       y2="992"
       x2="256"
       y1="544"
       x1="256"
       id="名称未設定グラデーション_61">
      <stop
         id="stop4538"
         stop-color="#fff"
         offset="0" />
      <stop
         id="stop4540"
         stop-color="red"
         offset="1" />
    </linearGradient>
  </defs>
  <sodipodi:namedview
     id="base"
     pagecolor="#ffffff"
     bordercolor="#666666"
     borderopacity="1.0"
     inkscape:pageopacity="0.0"
     inkscape:pageshadow="2"
     inkscape:zoom="0.98994949"
     inkscape:cx="351.53309"
     inkscape:cy="302.03561"
     inkscape:document-units="px"
     inkscape:current-layer="Eldstar"
     showgrid="false"
     units="px"
     inkscape:pagecheckerboard="true"
     borderlayer="true"
     inkscape:window-width="1680"
     inkscape:window-height="928"
     inkscape:window-x="0"
     inkscape:window-y="25"
     inkscape:window-maximized="1"
     fit-margin-top="0"
     fit-margin-left="0"
     fit-margin-right="0"
     fit-margin-bottom="0" />
  <metadata
     id="metadata7398">
    <rdf:RDF>
      <cc:Work
         rdf:about="">
        <dc:format>image/svg+xml</dc:format>
        <dc:type
           rdf:resource="http://purl.org/dc/dcmitype/StillImage" />
      </cc:Work>
    </rdf:RDF>
  </metadata>
  <g
     inkscape:label="Layer 1"
     inkscape:groupmode="layer"
     id="layer1"
     transform="translate(-132.55933,-72.399041)">
    <g
       id="g4762"
       transform="translate(0.37567527,7.1990467)">
      <g
         style="fill:#ffc639;fill-opacity:1"
         transform="matrix(0.26458333,0,0,0.26458333,112.71536,67.39727)"
         id="g4582">
        <g
           style="fill:#ffc639;fill-opacity:1"
           id="Eldstar">
          <path
             style="fill:#ffbb36;fill-opacity:1;stroke:#ffbb36;stroke-width:20px;stroke-linecap:round;stroke-linejoin:round;stroke-opacity:1"
             inkscape:connector-curvature="0"
             id="Base"
             class="cls-1"
             d="m 936.64144,377.43127 c -10.14,-31.23 -141.43143,-74.31525 -268.27143,-93.04525 -128.19755,-302.284353 -196.74595,-232.946902 -312.74,0 -126.84,18.73 -260.988566,61.81525 -271.128566,93.04525 -10.14,31.23 82.878566,111.65429 174.498566,201.36429 -21.39,126.42 -39.40538,246.28279 -12.84538,265.58279 26.56,19.3 152.73046,-46.59645 266.35046,-106.03645 113.62,59.41 233.72954,125.30645 260.29954,106.00645 26.57,-19.3 13.59538,-139.13279 -7.80462,-265.55279 91.62,-89.71 181.79143,-170.13429 171.64143,-201.36429 z"
             sodipodi:nodetypes="cccscscscc" />
        </g>
      </g>
      <path
         id="path4612"
         style="fill:#ea7aa1;fill-opacity:1;stroke:#ea7aa1;stroke-width:5.29201;stroke-linecap:butt;stroke-linejoin:miter;stroke-miterlimit:4;stroke-dasharray:none;stroke-opacity:1"
         d="m 307.13162,69.827319 c -13.14297,0.228326 -32.17207,12.637344 -39.43428,18.820038 -1.92609,1.639779 -3.44795,3.654685 -4.65708,5.832721 a 22.360125,22.360125 0 0 0 -14.85801,-5.651851 22.360125,22.360125 0 0 0 -15.11639,5.889045 c -1.16615,-2.003065 -2.60746,-3.852992 -4.3987,-5.377966 -9.88897,-8.418991 -41.59687,-28.383328 -50.5504,-13.416235 -8.95353,14.967096 10.02265,39.331969 10.02265,39.331969 0,0 -8.95348,35.14865 15.36805,34.07957 14.60322,-0.6419 24.06531,-12.5246 29.30002,-21.92114 a 22.360125,22.360125 0 0 0 15.37477,6.13502 22.360125,22.360125 0 0 0 15.62282,-6.38307 c 5.28377,9.32232 14.67898,20.84546 29.05197,21.47724 24.32153,1.06908 15.36806,-34.07957 15.36806,-34.07957 0,0 18.97617,-24.364877 10.02264,-39.331967 -2.37828,-3.975633 -6.36228,-5.48639 -11.11612,-5.403804 z" />
    </g>
  </g>
</svg>
